<svg width="442" height="574" viewBox="0 0 442 574" fill="none" xmlns="http://www.w3.org/2000/svg">
<path d="M406.853 87H422C433.046 87 442 95.9543 442 107V148C442 159.046 433.046 168 422 168H406.853V87Z" fill="#4DFF94"/>
<path d="M406.853 402H422C433.046 402 442 410.954 442 422V463C442 474.046 433.046 483 422 483H406.853V402Z" fill="#FFF066"/>
<path d="M406.853 297H422C433.046 297 442 305.954 442 317V358C442 369.046 433.046 378 422 378H406.853V297Z" fill="#E66AFA"/>
<path d="M406.853 192H422C433.046 192 442 200.954 442 212V253C442 264.046 433.046 273 422 273H406.853V192Z" fill="#FF4646"/>
<path d="M335.494 507H380.227V562C380.227 568.627 374.854 574 368.227 574H335.494V507Z" fill="#D2D2D2"/>
<rect x="94.7905" y="62" width="285.436" height="445" fill="#59B9FF"/>
<path d="M380.227 62H397.918C403.441 62 407.918 66.4772 407.918 72V497C407.918 502.523 403.441 507 397.918 507H380.227V62Z" fill="#37AAFF"/>
<path d="M29.8218 97C29.8218 77.67 45.4918 62 64.8218 62H94.7905V539H29.8218V97Z" fill="#4276FE"/>
<path d="M29.8218 540.5C29.8218 521.998 44.8202 507 63.3218 507H359.99V564C359.99 569.523 355.513 574 349.99 574H63.3217C44.8202 574 29.8218 559.002 29.8218 540.5Z" fill="white"/>
<rect x="169.345" y="237" width="136.328" height="15" rx="7.5" fill="white"/>
<rect x="79.8794" y="533" width="250.289" height="15" rx="7.5" fill="#D2D2D2"/>
<rect y="95" width="60.7084" height="16" rx="8" fill="#896BFF"/>
<rect y="207" width="60.7084" height="16" rx="8" fill="#896BFF"/>
<rect y="170" width="60.7084" height="16" rx="8" fill="#896BFF"/>
<rect y="132" width="60.7084" height="16" rx="8" fill="#896BFF"/>
<rect y="244" width="60.7084" height="16" rx="8" fill="#896BFF"/>
<rect y="356" width="60.7084" height="16" rx="8" fill="#896BFF"/>
<rect y="394" width="60.7084" height="16" rx="8" fill="#896BFF"/>
<rect y="468" width="60.7084" height="16" rx="8" fill="#896BFF"/>
<rect y="431" width="60.7084" height="16" rx="8" fill="#896BFF"/>
<rect y="319" width="60.7084" height="16" rx="8" fill="#896BFF"/>
<rect y="282" width="60.7084" height="16" rx="8" fill="#896BFF"/>
<rect x="128.872" y="127" width="217.272" height="83" rx="30" fill="white"/>
<path d="M102.246 0L135.623 17.8644L169 0V62H102.246V0Z" fill="#FFDD65"/>
<path d="M153.702 7.98314L162.046 3.64697V61.9999H153.702V7.98314Z" fill="#FF7373"/>
<path d="M117.543 7.95442L109.199 3.64697V61.9999H117.543V7.95442Z" fill="#FF7373"/>
<path d="M138.405 16.4543L146.749 12.1567V61.9999H138.405V16.4543Z" fill="#FF7373"/>
<path d="M132.842 16.4543L124.497 12.1567V61.9999H132.842V16.4543Z" fill="#FF7373"/>
</svg>
