<?xml version="1.0" encoding="UTF-8"?>
<svg xmlns="http://www.w3.org/2000/svg" xmlns:xlink="http://www.w3.org/1999/xlink" viewBox="0 0 480 480" width="480px" height="480px">
<g id="surface46956464">
<path style=" stroke:none;fill-rule:nonzero;fill:rgb(100%,100%,100%);fill-opacity:1;" d="M 260 170 L 180 170 C 141.339844 170 110 138.660156 110 100 C 110 61.339844 141.339844 30 180 30 L 260 30 Z M 260 170 "/>
<path style=" stroke:none;fill-rule:nonzero;fill:rgb(100%,100%,100%);fill-opacity:1;" d="M 250 310 L 180 310 C 141.339844 310 110 278.660156 110 240 C 110 201.339844 141.339844 170 180 170 L 250 170 Z M 250 310 "/>
<path style=" stroke:none;fill-rule:nonzero;fill:rgb(100%,100%,100%);fill-opacity:1;" d="M 180 450 C 141.339844 450 110 418.660156 110 380 C 110 341.339844 141.339844 310 180 310 L 250 310 L 250 380 C 250 418.660156 218.660156 450 180 450 Z M 180 450 "/>
<path style=" stroke:none;fill-rule:nonzero;fill:rgb(100%,100%,100%);fill-opacity:1;" d="M 320 170 L 250 170 L 250 30 L 320 30 C 358.660156 30 390 61.339844 390 100 C 390 138.660156 358.660156 170 320 170 Z M 320 170 "/>
<path style=" stroke:none;fill-rule:nonzero;fill:rgb(100%,100%,100%);fill-opacity:1;" d="M 390 240 C 390 278.660156 358.660156 310 320 310 C 281.339844 310 250 278.660156 250 240 C 250 201.339844 281.339844 170 320 170 C 358.660156 170 390 201.339844 390 240 Z M 390 240 "/>
</g>
</svg>
