<svg width="42" height="30" viewBox="0 0 42 30" fill="none" xmlns="http://www.w3.org/2000/svg">
<path d="M41.9426 23.7643L39.5598 7.35C38.9477 3.12857 35.2532 0 30.9029 0H11.0971C6.7468 0 3.05234 3.12857 2.44024 7.35L0.0574201 23.7643C-0.423516 27.0643 2.17791 30 5.56633 30C7.05286 30 8.45194 29.4214 9.50126 28.3929L14.4418 23.5714H27.5582L32.4769 28.3929C33.5262 29.4214 34.9472 30 36.4118 30C39.8221 30 42.4235 27.0643 41.9426 23.7643ZM18.8139 12.8571H14.4418V17.1429H12.2557V12.8571H7.88356V10.7143H12.2557V6.42857H14.4418V10.7143H18.8139V12.8571ZM27.5582 10.7143C26.3559 10.7143 25.3722 9.75 25.3722 8.57143C25.3722 7.39286 26.3559 6.42857 27.5582 6.42857C28.7606 6.42857 29.7443 7.39286 29.7443 8.57143C29.7443 9.75 28.7606 10.7143 27.5582 10.7143ZM31.9304 17.1429C30.728 17.1429 29.7443 16.1786 29.7443 15C29.7443 13.8214 30.728 12.8571 31.9304 12.8571C33.1327 12.8571 34.1164 13.8214 34.1164 15C34.1164 16.1786 33.1327 17.1429 31.9304 17.1429Z" fill="#AA7EEC"/>
</svg>
