<?xml version="1.0" encoding="UTF-8"?>
<svg xmlns="http://www.w3.org/2000/svg" xmlns:xlink="http://www.w3.org/1999/xlink" viewBox="0 0 480 480" width="480px" height="480px">
<g id="surface46957013">
<path style=" stroke:none;fill-rule:nonzero;fill:rgb(60.000002%,60.000002%,60.000002%);fill-opacity:1;" d="M 240 40 C 129.539062 40 40 129.539062 40 240 C 40 328.871094 98.011719 404.109375 178.199219 430.160156 L 301.800781 430.160156 C 381.988281 404.109375 440 328.871094 440 240 C 440 129.539062 350.460938 40 240 40 Z M 240 40 "/>
<path style=" stroke:none;fill-rule:nonzero;fill:rgb(100%,100%,100%);fill-opacity:1;" d="M 370 235 C 370 206.03125 361.25 185.339844 346.449219 170.761719 C 355.910156 153.941406 343.390625 120 343.390625 120 C 318.390625 125 299.71875 135 287.300781 143.761719 C 272.621094 141.148438 256.710938 140 240 140 C 222.898438 140 206.609375 141.179688 191.660156 143.929688 C 179.238281 135.140625 160.511719 125.039062 135.339844 120 C 135.339844 120 122.5 154.921875 132.789062 171.460938 C 118.429688 186 110 206.511719 110 235 C 110 296.21875 148.789062 320.78125 202.089844 327.738281 C 194.660156 336.46875 190 347.640625 190 360 L 190 363.050781 C 188.371094 363.5 186.679688 363.890625 184.859375 364.128906 C 173.789062 365.558594 162.148438 364.128906 156.53125 360.800781 C 150.910156 357.46875 144.238281 349.96875 139.238281 342.671875 C 135.019531 336.511719 126.609375 322.351562 105.078125 322.878906 C 101.320312 322.78125 99.601562 326.308594 100.078125 328.511719 C 100.511719 330.449219 102.210938 333.511719 109.039062 336.011719 C 115.890625 338.519531 119.671875 344.550781 123.421875 350.589844 C 127.601562 357.328125 127.589844 375.269531 149.039062 384.75 C 164.339844 391.519531 178.921875 390.691406 190.011719 388.019531 L 190.019531 420.011719 C 190.019531 426.398438 184.171875 431.261719 178.109375 430.140625 C 197.550781 436.679688 218.328125 440 240 440 C 261.660156 440 282.429688 436.679688 301.898438 430.160156 C 295.839844 431.269531 290 426.410156 290 420.019531 L 290 360 C 290 347.640625 285.339844 336.46875 277.910156 327.738281 C 331.210938 320.78125 370 296.21875 370 235 Z M 370 235 "/>
<path style=" stroke:none;fill-rule:nonzero;fill:rgb(100%,100%,100%);fill-opacity:1;" d="M 150 180 L 188.378906 167.210938 C 198.480469 163.839844 200.691406 150.371094 192.03125 144.191406 L 191.660156 143.929688 C 167.671875 148.328125 147.210938 156.839844 132.78125 171.460938 C 135.960938 176.578125 141.289062 180 150 180 Z M 150 180 "/>
<path style=" stroke:none;fill-rule:nonzero;fill:rgb(100%,100%,100%);fill-opacity:1;" d="M 286.929688 144.019531 C 278.148438 150.25 280.378906 163.890625 290.589844 167.289062 L 328.71875 180 C 337.851562 180 343.328125 176.300781 346.449219 170.761719 C 331.851562 156.378906 311.320312 148.019531 287.300781 143.75 C 287.171875 143.839844 287.050781 143.929688 286.929688 144.019531 Z M 286.929688 144.019531 "/>
<path style=" stroke:none;fill-rule:nonzero;fill:rgb(100%,100%,100%);fill-opacity:1;" d="M 240 310 C 224.75 310 211.261719 316.96875 202.089844 327.738281 C 214.089844 329.308594 226.808594 330 240 330 C 253.191406 330 265.910156 329.308594 277.910156 327.738281 C 268.738281 316.96875 255.25 310 240 310 Z M 240 310 "/>
</g>
</svg>
