<svg width="3121" height="968" viewBox="0 0 3121 968" fill="none" xmlns="http://www.w3.org/2000/svg">
<g filter="url(#filter0_d_507_36)">
<path d="M627.484 150.953H661C672.046 150.953 681 159.907 681 170.953V248.22C681 259.265 672.046 268.22 661 268.22H627.484V150.953Z" fill="#4DFF94"/>
<path d="M627.484 606.99H661C672.046 606.99 681 615.944 681 626.99V704.256C681 715.302 672.046 724.256 661 724.256H627.484V606.99Z" fill="#FFF066"/>
<path d="M627.484 454.977H661C672.046 454.977 681 463.931 681 474.977V552.244C681 563.289 672.046 572.244 661 572.244H627.484V454.977Z" fill="#E66AFA"/>
<path d="M627.484 302.966H661C672.046 302.966 681 311.92 681 322.966V400.232C681 411.278 672.046 420.232 661 420.232H627.484V302.966Z" fill="#FF4646"/>
<path d="M518.832 759.001H586.942V844C586.942 850.627 581.57 856 574.942 856H518.832V759.001Z" fill="#D2D2D2"/>
<rect x="152.33" y="114.759" width="434.612" height="644.242" fill="#59B9FF"/>
<path d="M586.942 114.759H619.106C624.629 114.759 629.106 119.236 629.106 124.759V749.002C629.106 754.525 624.629 759.002 619.106 759.002H586.942V114.759Z" fill="#37AAFF"/>
<path d="M53.4072 149.759C53.4072 130.429 69.0773 114.759 88.4072 114.759H152.33V805.329H53.4072V149.759Z" fill="#4276FE"/>
<path d="M53.4072 799.001C53.4072 776.91 71.3158 759.001 93.4072 759.001H556.13V846C556.13 851.523 551.653 856 546.13 856H93.4072C71.3158 856 53.4072 838.091 53.4072 816V799.001Z" fill="white"/>
<rect x="265.849" y="368.113" width="207.576" height="21.716" rx="10.858" fill="white"/>
<rect x="129.626" y="796.643" width="381.096" height="21.716" rx="10.858" fill="#D2D2D2"/>
<rect x="8" y="162.535" width="92.4361" height="23.1638" rx="11.5819" fill="#896BFF"/>
<rect x="8" y="324.681" width="92.4361" height="23.1638" rx="11.5819" fill="#896BFF"/>
<rect x="8" y="271.115" width="92.4361" height="23.1638" rx="11.5819" fill="#896BFF"/>
<rect x="8" y="216.101" width="92.4361" height="23.1638" rx="11.5819" fill="#896BFF"/>
<rect x="8" y="378.247" width="92.4361" height="23.1638" rx="11.5819" fill="#896BFF"/>
<rect x="8" y="540.394" width="92.4361" height="23.1638" rx="11.5819" fill="#896BFF"/>
<rect x="8" y="595.408" width="92.4361" height="23.1638" rx="11.5819" fill="#896BFF"/>
<rect x="8" y="702.54" width="92.4361" height="23.1638" rx="11.5819" fill="#896BFF"/>
<rect x="8" y="648.974" width="92.4361" height="23.1638" rx="11.5819" fill="#896BFF"/>
<rect x="8" y="486.828" width="92.4361" height="23.1638" rx="11.5819" fill="#896BFF"/>
<rect x="8" y="433.261" width="92.4361" height="23.1638" rx="11.5819" fill="#896BFF"/>
<rect x="204.224" y="208.862" width="330.824" height="120.162" rx="30" fill="white"/>
<path d="M163.682 25L214.503 50.8629L265.324 25V114.76H163.682V25Z" fill="#FFDD65"/>
<path d="M242.031 36.5569L254.736 30.2793V114.759H242.031V36.5569Z" fill="#FF7373"/>
<path d="M186.975 36.5153L174.269 30.2793V114.759H186.975V36.5153Z" fill="#FF7373"/>
<path d="M218.738 48.8214L231.444 42.5996V114.759H218.738V48.8214Z" fill="#FF7373"/>
<path d="M210.268 48.8214L197.563 42.5996V114.759H210.268V48.8214Z" fill="#FF7373"/>
<path d="M1045.2 711.4C1001.8 711.4 965.867 693.9 937.4 658.9C908.933 623.433 894.7 577.233 894.7 520.3C894.7 463.367 904.5 411.567 924.1 364.9C943.7 317.767 971.7 279.5 1008.1 250.1C1044.5 220.7 1083.23 206 1124.3 206C1165.83 206 1199.2 215.333 1224.4 234C1250.07 252.667 1262.9 275.067 1262.9 301.2C1262.9 326.867 1255.2 348.8 1239.8 367C1224.87 367 1208.07 363.733 1189.4 357.2C1170.73 350.667 1156.73 342.733 1147.4 333.4L1160.7 262.7C1149.5 255.7 1134.8 252.2 1116.6 252.2C1088.13 252.2 1062.93 276.7 1041 325.7C1019.07 374.233 1008.1 434.2 1008.1 505.6C1008.1 552.733 1015.8 587.033 1031.2 608.5C1047.07 629.5 1066.2 640 1088.6 640C1125.47 640 1160.93 622.733 1195 588.2L1223.7 614.1C1218.57 621.567 1209.23 631.833 1195.7 644.9C1182.17 657.967 1168.87 668.933 1155.8 677.8C1142.73 686.2 1126.17 693.9 1106.1 700.9C1086.03 707.9 1065.73 711.4 1045.2 711.4ZM1280.39 693.9C1277.13 704.167 1269.66 709.3 1257.99 709.3C1246.79 709.3 1233.96 703 1219.49 690.4C1233.49 649.333 1263.13 583.3 1308.39 492.3C1353.66 400.833 1383.06 332.467 1396.59 287.2C1398.46 279.733 1399.39 274.6 1399.39 271.8C1399.39 264.8 1394.26 254.067 1383.99 239.6L1378.39 231.9L1379.79 222.8C1419.46 211.6 1463.33 206 1511.39 206L1554.09 208.8C1559.23 215.8 1563.19 226.533 1565.99 241C1573.46 276.467 1577.19 367.7 1577.19 514.7C1577.19 571.633 1582.09 611.767 1591.89 635.1C1595.63 643.967 1599.36 648.4 1603.09 648.4C1606.83 648.4 1618.26 643.733 1637.39 634.4L1646.49 630.2L1660.49 655.4C1642.76 672.667 1622.93 686.433 1600.99 696.7C1579.53 706.5 1559.69 711.4 1541.49 711.4C1494.36 711.4 1470.79 674.767 1470.79 601.5V546.2C1458.66 543.4 1440.23 542 1415.49 542C1390.76 542 1363.69 544.333 1334.29 549C1310.96 603.133 1292.99 651.433 1280.39 693.9ZM1472.19 498.6L1472.89 417.4C1472.89 346.467 1469.86 298.4 1463.79 273.2C1460.06 273.2 1457.26 273.667 1455.39 274.6C1442.33 310.533 1429.96 341.1 1418.29 366.3C1407.09 391.033 1394.73 417.633 1381.19 446.1C1368.13 474.1 1359.96 491.6 1356.69 498.6H1472.19ZM1736.91 206L1970.71 213.7L2036.51 212.3C2037.91 222.1 2038.61 232.367 2038.61 243.1C2038.61 253.833 2036.75 261.533 2033.01 266.2C2029.28 270.867 2022.51 273.2 2012.71 273.2C2011.78 273.2 1978.88 270.167 1914.01 264.1C1912.15 285.1 1905.15 321.033 1893.01 371.9C1880.88 422.767 1869.21 477.133 1858.01 535C1846.81 592.867 1840.98 644.9 1840.51 691.1C1822.31 700.433 1784.98 705.1 1728.51 705.1H1723.61C1723.61 680.833 1736.91 608.5 1763.51 488.1C1790.11 367.7 1803.41 294.433 1803.41 268.3C1803.41 266.433 1802.95 263.167 1802.01 258.5H1774.01C1735.75 258.5 1706.35 264.333 1685.81 276C1675.08 262 1668.55 241.467 1666.21 214.4C1682.08 208.8 1705.65 206 1736.91 206ZM2220.63 413.2C2221.56 412.267 2224.13 406.2 2228.33 395C2250.26 395 2279.66 401.533 2316.53 414.6C2304.86 453.333 2295.53 493.933 2288.53 536.4C2281.53 578.4 2278.03 608.5 2278.03 626.7C2278.03 644.433 2279.9 653.3 2283.63 653.3C2286.43 653.3 2296.7 648.867 2314.43 640L2322.83 635.8L2335.43 660.3C2331.23 664.033 2325.63 668.7 2318.63 674.3C2312.1 679.9 2299.5 687.6 2280.83 697.4C2262.16 706.733 2245.36 711.4 2230.43 711.4C2201.5 711.4 2184.7 698.333 2180.03 672.2C2150.16 698.333 2123.1 711.4 2098.83 711.4C2075.03 711.4 2054.73 702.067 2037.93 683.4C2021.6 664.733 2013.43 635.333 2013.43 595.2C2013.43 532.667 2026.26 483.433 2051.93 447.5C2077.6 411.1 2108.63 392.9 2145.03 392.9C2171.16 392.9 2196.36 399.667 2220.63 413.2ZM2140.83 651.9C2152.03 651.9 2164.63 647.467 2178.63 638.6C2181.9 572.8 2192.86 507.7 2211.53 443.3C2197.53 437.233 2185.63 434.2 2175.83 434.2C2159.03 434.2 2144.56 450.767 2132.43 483.9C2120.76 516.567 2114.93 552.733 2114.93 592.4C2114.93 632.067 2123.56 651.9 2140.83 651.9ZM2133.13 217.9C2145.73 217.9 2166.26 227.7 2194.73 247.3C2202.2 252.433 2208.73 257.1 2214.33 261.3C2220.4 265.033 2227.86 270.167 2236.73 276.7C2245.6 283.233 2252.83 288.6 2258.43 292.8C2272.43 304.467 2287.36 315.9 2303.23 327.1L2287.83 353.7C2230.43 331.767 2162.3 308.2 2083.43 283C2101.16 239.6 2117.73 217.9 2133.13 217.9ZM2402.26 711.4C2386.39 711.4 2373.09 706.033 2362.36 695.3C2352.09 684.567 2346.96 669.633 2346.96 650.5C2346.96 630.9 2358.39 569.067 2381.26 465C2404.59 360.467 2416.26 285.1 2416.26 238.9L2412.06 208.1C2448.46 195.5 2482.53 189.2 2514.26 189.2C2518.93 195.733 2521.26 207.167 2521.26 223.5C2521.26 260.833 2509.36 333.167 2485.56 440.5C2462.23 547.367 2450.56 609.667 2450.56 627.4C2450.56 644.667 2452.66 653.3 2456.86 653.3L2505.86 635.8L2518.46 660.3C2502.59 672.9 2483.23 684.567 2460.36 695.3C2437.96 706.033 2418.59 711.4 2402.26 711.4ZM2531.5 581.9C2531.5 523.567 2549 477.6 2584 444C2619.46 409.933 2659.6 392.9 2704.4 392.9C2731.93 392.9 2754.56 399.667 2772.3 413.2C2790.03 426.733 2798.9 444.933 2798.9 467.8C2798.9 490.2 2793.06 509.1 2781.4 524.5C2770.2 539.9 2756.43 551.8 2740.1 560.2C2706.96 576.533 2676.63 586.8 2649.1 591L2632.3 593.1C2635.56 636.967 2653.53 658.9 2686.2 658.9C2697.4 658.9 2709.3 656.1 2721.9 650.5C2734.5 644.9 2744.3 639.3 2751.3 633.7L2761.8 625.3L2778.6 647.7C2774.86 652.833 2767.4 659.6 2756.2 668C2745 676.4 2734.5 683.4 2724.7 689C2697.63 703.933 2668 711.4 2635.8 711.4C2603.6 711.4 2578.16 699.967 2559.5 677.1C2540.83 654.233 2531.5 622.5 2531.5 581.9ZM2631.6 558.8C2655.4 554.6 2674.3 544.567 2688.3 528.7C2702.3 512.833 2709.3 492.3 2709.3 467.1C2709.3 441.9 2701.83 429.3 2686.9 429.3C2669.16 429.3 2655.4 444.467 2645.6 474.8C2636.26 504.667 2631.6 532.667 2631.6 558.8ZM2902.09 778.6C2886.69 787.933 2878.99 797.033 2878.99 805.9C2878.99 814.767 2883.89 819.2 2893.69 819.2C2903.95 819.2 2915.39 814.3 2927.99 804.5C2940.59 795.167 2951.09 779.767 2959.49 758.3C2937.09 762.5 2917.95 769.267 2902.09 778.6ZM3109.99 397.8C3111.85 399.667 3112.79 403.867 3112.79 410.4C3112.79 416.467 3112.32 423.233 3111.39 430.7C3110.45 437.7 3108.82 453.8 3106.49 479C3104.15 504.2 3101.82 526.133 3099.49 544.8C3075.69 754.8 3011.75 859.8 2907.69 859.8C2890.89 859.8 2875.49 855.367 2861.49 846.5C2847.95 837.633 2841.19 826.2 2841.19 812.2C2841.19 793.533 2852.62 776.5 2875.49 761.1C2898.35 745.7 2929.15 733.8 2967.89 725.4C2967.89 724.933 2969.29 718.4 2972.09 705.8C2974.89 693.2 2976.75 682.933 2977.69 675C2949.69 695.533 2923.32 705.8 2898.59 705.8C2874.32 705.8 2854.25 696.233 2838.39 677.1C2822.99 657.967 2815.29 627.4 2815.29 585.4C2815.29 530.333 2827.65 484.6 2852.39 448.2C2877.12 411.333 2909.79 392.9 2950.39 392.9C2973.25 392.9 2995.89 398.5 3018.29 409.7C3042.09 401.3 3067.75 397.1 3095.29 397.1L3109.99 397.8ZM2981.89 434.2C2961.82 434.2 2945.95 450.533 2934.29 483.2C2922.62 515.4 2916.79 551.333 2916.79 591C2916.79 630.2 2925.65 649.8 2943.39 649.8C2955.05 649.8 2968.82 645.367 2984.69 636.5C2997.75 558.1 3007.09 493.467 3012.69 442.6C2999.62 437 2989.35 434.2 2981.89 434.2Z" fill="black"/>
</g>
<defs>
<filter id="filter0_d_507_36" x="0" y="25" width="3120.79" height="850.8" filterUnits="userSpaceOnUse" color-interpolation-filters="sRGB">
<feFlood flood-opacity="0" result="BackgroundImageFix"/>
<feColorMatrix in="SourceAlpha" type="matrix" values="0 0 0 0 0 0 0 0 0 0 0 0 0 0 0 0 0 0 127 0" result="hardAlpha"/>
<feOffset dy="8"/>
<feGaussianBlur stdDeviation="4"/>
<feComposite in2="hardAlpha" operator="out"/>
<feColorMatrix type="matrix" values="0 0 0 0 0 0 0 0 0 0 0 0 0 0 0 0 0 0 0.25 0"/>
<feBlend mode="normal" in2="BackgroundImageFix" result="effect1_dropShadow_507_36"/>
<feBlend mode="normal" in="SourceGraphic" in2="effect1_dropShadow_507_36" result="shape"/>
</filter>
</defs>
</svg>
