<svg width="34" height="27" viewBox="0 0 34 27" fill="none" xmlns="http://www.w3.org/2000/svg">
<path d="M29.3636 0H4.63632C2.93632 0 1.54541 1.35 1.54541 3V21C1.54541 22.65 2.93632 24 4.63632 24H29.3636C31.0636 24 32.4545 22.65 32.4545 21V3C32.4545 1.35 31.0636 0 29.3636 0ZM13.1363 16.005V7.995C13.1363 6.81 14.4963 6.09 15.5163 6.735L21.93 10.74C22.8727 11.325 22.8727 12.675 21.93 13.26L15.5163 17.265C14.4963 17.91 13.1363 17.19 13.1363 16.005Z" fill="#FF556E"/>
<path d="M30.9091 0H3.09091C1.39091 0 0 1.35 0 3V21C0 22.65 1.39091 24 3.09091 24H10.8182V25.5C10.8182 26.325 11.5136 27 12.3636 27H21.6364C22.4864 27 23.1818 26.325 23.1818 25.5V24H30.9091C32.6091 24 33.9845 22.65 33.9845 21L34 3C34 1.35 32.6091 0 30.9091 0ZM29.3636 21H4.63636C3.78636 21 3.09091 20.325 3.09091 19.5V4.5C3.09091 3.675 3.78636 3 4.63636 3H29.3636C30.2136 3 30.9091 3.675 30.9091 4.5V19.5C30.9091 20.325 30.2136 21 29.3636 21Z" fill="#FF556E"/>
</svg>
