<?xml version="1.0" encoding="UTF-8"?>
<svg xmlns="http://www.w3.org/2000/svg" xmlns:xlink="http://www.w3.org/1999/xlink" viewBox="0 0 480 480" width="480px" height="480px">
<g id="surface46919183">
<path style=" stroke:none;fill-rule:nonzero;fill:rgb(100%,100%,100%);fill-opacity:1;" d="M 60 100 C 60 78 78 60 100 60 L 380 60 C 402 60 420 78 420 100 L 420 380 C 420 402 402 420 380 420 L 100 420 C 78 420 60 402 60 380 Z M 60 100 "/>
<path style=" stroke:none;fill-rule:nonzero;fill:rgb(60.000002%,60.000002%,60.000002%);fill-opacity:1;" d="M 100 122 C 100 110 110 100 122 100 L 198 100 C 210 100 220 110 220 122 L 220 338 C 220 350 210 360 198 360 L 122 360 C 110 360 100 350 100 338 Z M 260 228 C 260 240 270 250 282 250 L 358 250 C 370 250 380 240 380 228 L 380 122 C 380 110 370 100 358 100 L 282 100 C 270 100 260 110 260 122 Z M 260 228 "/>
</g>
</svg>
