<?xml version="1.0" encoding="UTF-8"?>
<svg xmlns="http://www.w3.org/2000/svg" xmlns:xlink="http://www.w3.org/1999/xlink" viewBox="0 0 500 500" width="500px" height="500px">
<g id="surface47062083">
<path style=" stroke:none;fill-rule:nonzero;fill:rgb(100%,100%,100%);fill-opacity:1;" d="M 410 40 L 90 40 C 62.398438 40 40 62.398438 40 90 L 40 410 C 40 437.601562 62.398438 460 90 460 L 410 460 C 437.601562 460 460 437.601562 460 410 L 460 90 C 460 62.398438 437.601562 40 410 40 Z M 210 360 C 210 371 201 380 190 380 L 120 380 C 109 380 100 371 100 360 L 100 120 C 100 109 109 100 120 100 L 190 100 C 201 100 210 109 210 120 Z M 400 240 C 400 251 391 260 380 260 L 310 260 C 299 260 290 251 290 240 L 290 120 C 290 109 299 100 310 100 L 380 100 C 391 100 400 109 400 120 Z M 400 240 "/>
</g>
</svg>
